<svg width="103" height="197" viewBox="0 0 103 197" fill="none" xmlns="http://www.w3.org/2000/svg">
<g clip-path="url(#clip0_28_316)">
<path d="M76.3828 171.825C34.6114 124.925 14.8591 71.3863 13.8492 9.45019C19.3906 11.9789 19.0088 15.9227 19.134 18.7915C20.8393 40.5978 27.4828 61.3361 33.8592 81.9445C43.0023 111.661 59.4628 137.007 79.8492 160.297C80.6646 161.354 81.8037 162.073 84.2225 163.909C82.1338 149.184 72.5597 137.097 73.8609 123.194C74.7191 123.116 75.704 122.769 76.5622 122.69C80.3139 131.452 84.1358 140.412 88.0844 149.104C92.0331 157.796 96.1084 166.219 99.8601 174.98C102.572 181.419 100.404 185.32 93.6512 185.01C84.9154 184.728 76.3491 183.041 67.7262 181.822C66.7978 181.701 65.6022 181.45 64.9273 180.792C63.3667 178.877 62.3971 176.754 60.9633 174.57C62.7926 173.477 64.6082 171.717 66.4513 171.292C68.9555 170.858 71.4171 171.559 76.3828 171.825Z" fill="#C7C7C7"/>
</g>
<defs>
<clipPath id="clip0_28_316">
<rect width="193" height="40" fill="white" transform="translate(38.5049 0.761841) rotate(70.5882)"/>
</clipPath>
</defs>
</svg>
