<svg width="284" height="184" viewBox="0 0 284 184" fill="none" xmlns="http://www.w3.org/2000/svg">
<g clip-path="url(#clip0_29_354)">
<path d="M9.00066 141.219C10.4081 126.865 18.9148 112.536 32.4499 107.524C27.4484 122.392 27.8711 138.547 33.6433 153.133C35.8898 158.75 38.9738 164.764 37.149 170.531C36.0137 174.12 33.0802 176.92 29.7662 178.709C26.452 180.498 22.7458 181.406 19.0858 182.296L18.377 182.914C12.1899 169.883 7.59321 155.574 9.00066 141.219Z" fill="#F0F0F0"/>
<path d="M32.5925 107.791C24.9504 116.804 20.1404 128.315 19.2994 140.115C19.1176 142.666 19.1554 145.27 19.7776 147.764C20.4027 150.19 21.6667 152.404 23.4381 154.177C25.0565 155.864 26.9075 157.401 28.0875 159.451C29.3313 161.612 29.4418 164.101 28.6902 166.45C27.7706 169.325 25.8722 171.697 23.9351 173.953C21.7842 176.458 19.5104 179.025 18.6537 182.294C18.5498 182.69 17.9409 182.506 18.0445 182.111C19.5352 176.424 24.935 173.075 27.4175 167.923C28.5758 165.519 29.0161 162.752 27.8068 160.278C26.7494 158.114 24.842 156.527 23.1885 154.834C21.4524 153.056 20.1055 151.091 19.3755 148.696C18.6288 146.246 18.4891 143.638 18.6048 141.094C18.9104 135.325 20.1217 129.641 22.1945 124.248C24.526 118.081 27.8962 112.358 32.1593 107.326C32.4232 107.014 32.8548 107.482 32.5925 107.791Z" fill="white"/>
<path d="M19.3704 136.265C17.3927 135.839 15.6309 134.725 14.3994 133.122C13.168 131.518 12.5471 129.529 12.6478 127.51C12.6526 127.428 12.6893 127.351 12.75 127.295C12.8107 127.239 12.8907 127.209 12.9732 127.211C13.0557 127.213 13.1342 127.247 13.1921 127.306C13.2501 127.364 13.283 127.443 13.284 127.525C13.1867 129.405 13.7652 131.258 14.915 132.749C16.0648 134.24 17.7101 135.271 19.5541 135.656C19.9547 135.741 19.7687 136.349 19.3704 136.265Z" fill="white"/>
<path d="M22.5047 153.43C25.9989 151.22 28.531 147.776 29.5962 143.783C29.7014 143.387 30.3104 143.571 30.2053 143.966C29.0891 148.119 26.4467 151.699 22.8056 153.99C22.4584 154.209 22.1594 153.647 22.5047 153.43Z" fill="white"/>
<path d="M25.1321 118.668C25.863 118.992 26.6629 119.129 27.4601 119.068C28.2573 119.007 29.0268 118.748 29.6995 118.317C30.0437 118.094 30.3424 118.656 30.0003 118.877C29.2549 119.35 28.4048 119.634 27.5241 119.704C26.6435 119.774 25.7592 119.627 24.9485 119.276C24.8693 119.25 24.8032 119.194 24.7637 119.12C24.7242 119.047 24.7142 118.961 24.7357 118.88C24.7605 118.8 24.816 118.732 24.8902 118.692C24.9644 118.653 25.0514 118.644 25.1321 118.668Z" fill="white"/>
<path d="M74.7442 131.996C74.5332 132.141 74.3221 132.286 74.111 132.436C71.2842 134.401 68.6218 136.592 66.1501 138.987C65.9561 139.169 65.7622 139.357 65.5738 139.544C59.6805 145.379 54.9225 152.256 51.5417 159.826C50.1992 162.839 49.0881 165.951 48.218 169.133C47.0167 173.527 46.064 178.387 43.5537 182.022C43.2961 182.404 43.015 182.77 42.7121 183.117L19.186 183.73C19.1319 183.704 19.0776 183.684 19.0232 183.659L18.085 183.726C18.1184 183.559 18.1566 183.386 18.19 183.219C18.209 183.122 18.2332 183.025 18.2522 182.928C18.2665 182.863 18.2811 182.798 18.2903 182.739C18.2949 182.717 18.2999 182.696 18.3047 182.68C18.3139 182.62 18.3288 182.566 18.3381 182.512C18.5492 181.546 18.7674 180.58 18.9929 179.613C18.9927 179.608 18.9927 179.608 18.9978 179.602C20.7342 172.242 23.1008 164.962 26.4981 158.273C26.6003 158.071 26.7022 157.865 26.8152 157.663C28.3633 154.656 30.1547 151.781 32.1717 149.066C33.2808 147.582 34.4645 146.156 35.718 144.792C38.9637 141.275 42.7428 138.29 46.917 135.946C55.2387 131.275 64.963 129.315 74.0516 131.799C74.2841 131.863 74.5116 131.927 74.7442 131.996Z" fill="#F0F0F0"/>
<path d="M74.699 132.295C63.1664 134.894 52.3901 141.191 44.6082 150.107C42.9258 152.035 41.387 154.136 40.3811 156.502C39.4184 158.815 39.0932 161.344 39.4392 163.825C39.7154 166.145 40.2668 168.486 39.9737 170.833C39.6648 173.306 38.2533 175.36 36.2376 176.784C33.7714 178.525 30.8259 179.278 27.9199 179.914C24.6933 180.62 21.3306 181.302 18.677 183.396C18.3555 183.65 17.9802 183.137 18.3012 182.883C22.9181 179.239 29.2475 179.814 34.3339 177.194C36.7073 175.971 38.7263 174.027 39.2516 171.324C39.711 168.96 39.1445 166.545 38.8445 164.199C38.5296 161.735 38.6383 159.355 39.4985 157.004C40.3784 154.599 41.8382 152.433 43.4639 150.471C47.1837 146.049 51.5761 142.239 56.4804 139.18C62.0582 135.658 68.1978 133.116 74.6336 131.663C75.032 131.573 75.0948 132.206 74.699 132.295Z" fill="white"/>
<path d="M46.985 147.076C45.6624 145.546 44.9269 143.597 44.91 141.576C44.893 139.554 45.5957 137.593 46.8926 136.041C47.156 135.728 47.6552 136.123 47.3914 136.436C46.1811 137.879 45.5267 139.706 45.5463 141.588C45.566 143.47 46.2583 145.283 47.4983 146.7C47.7675 147.008 47.2526 147.382 46.985 147.076Z" fill="white"/>
<path d="M39.1444 162.667C43.266 163.004 47.3634 161.777 50.6197 159.23C50.9421 158.977 51.3175 159.491 50.9955 159.743C47.602 162.387 43.3354 163.656 39.0471 163.295C38.6384 163.26 38.7379 162.632 39.1444 162.667Z" fill="white"/>
<path d="M62.1884 136.491C62.5768 137.19 63.1326 137.781 63.8061 138.211C64.4795 138.642 65.2495 138.899 66.0468 138.958C66.4557 138.988 66.3558 139.616 65.9495 139.587C65.0689 139.516 64.2189 139.232 63.4738 138.758C62.7287 138.284 62.1111 137.634 61.6751 136.867C61.6279 136.798 61.6088 136.713 61.6215 136.631C61.6343 136.548 61.6781 136.474 61.7439 136.422C61.8121 136.373 61.8971 136.353 61.9803 136.365C62.0636 136.378 62.1383 136.424 62.1884 136.491Z" fill="white"/>
<path d="M212.821 12.5943C212.47 11.5579 208.065 8.03516 210.764 7.44305L212.978 10.3921L223.155 0.223877L224.178 1.24656L212.821 12.5943Z" fill="#27AE60"/>
<path d="M212.821 47.1705C212.47 46.1342 208.065 42.6114 210.764 42.0193L212.978 44.9684L223.155 34.8001L224.178 35.8228L212.821 47.1705Z" fill="#27AE60"/>
<path d="M212.821 82.2407C212.47 81.2043 208.065 77.6816 210.764 77.0895L212.978 80.0385L223.155 69.8703L224.178 70.893L212.821 82.2407Z" fill="#27AE60"/>
<path d="M203.45 53.8874C205.185 53.8874 206.591 52.4825 206.591 50.7496C206.591 49.0167 205.185 47.6118 203.45 47.6118C201.716 47.6118 200.31 49.0167 200.31 50.7496C200.31 52.4825 201.716 53.8874 203.45 53.8874Z" fill="#3F3D56"/>
<path d="M203.45 19.6858C205.185 19.6858 206.591 18.2809 206.591 16.548C206.591 14.8151 205.185 13.4102 203.45 13.4102C201.716 13.4102 200.31 14.8151 200.31 16.548C200.31 18.2809 201.716 19.6858 203.45 19.6858Z" fill="#3F3D56"/>
<path d="M284 9.33112H233.44V9.95867H284V9.33112Z" fill="#3F3D56"/>
<path d="M205.021 90.3462C206.755 90.3462 208.161 88.9414 208.161 87.2085C208.161 85.4755 206.755 84.0707 205.021 84.0707C203.286 84.0707 201.88 85.4755 201.88 87.2085C201.88 88.9414 203.286 90.3462 205.021 90.3462Z" fill="#3F3D56"/>
<path d="M284 43.9073H233.44V44.5349H284V43.9073Z" fill="#3F3D56"/>
<path d="M284 78.9774H233.44V79.605H284V78.9774Z" fill="#3F3D56"/>
<path d="M220.753 86.916H205.051V70.9134H215.728V71.5409H205.679V86.2884H220.125V79.0716H220.753V86.916Z" fill="#3F3D56"/>
<path d="M220.753 51.773H205.051V35.7705H215.728V36.398H205.679V51.1455H220.125V43.9286H220.753V51.773Z" fill="#3F3D56"/>
<path d="M220.753 16.0026H205.051V0H215.728V0.627552H205.679V15.375H220.125V8.15818H220.753V16.0026Z" fill="#3F3D56"/>
<path d="M118.235 57.0356C118.235 57.0356 114.039 74.7392 119.168 74.7392C124.297 74.7392 136.42 54.7061 136.42 54.7061L132.223 49.5814L124.691 60.0301L124.297 54.7062L118.235 57.0356Z" fill="#A0616A"/>
<path d="M135.301 55.4758C137.556 55.4758 139.384 53.6495 139.384 51.3967C139.384 49.1439 137.556 47.3176 135.301 47.3176C133.047 47.3176 131.219 49.1439 131.219 51.3967C131.219 53.6495 133.047 55.4758 135.301 55.4758Z" fill="#A0616A"/>
<path d="M114.677 177.612L120.111 177.612L122.696 156.669L114.676 156.669L114.677 177.612Z" fill="#A0616A"/>
<path d="M114.486 183.276L131.196 183.276V183.065C131.196 181.341 130.511 179.688 129.291 178.469C128.071 177.251 126.417 176.566 124.692 176.566H124.692L121.639 174.252L115.944 176.566L114.485 176.566L114.486 183.276Z" fill="#2F2E41"/>
<path d="M56.2241 170.838L61.0863 173.262L72.7596 155.677L65.5833 152.099L56.2241 170.838Z" fill="#A0616A"/>
<path d="M53.521 175.821L68.4731 183.276L68.5675 183.087C69.3377 181.545 69.4633 179.761 68.9166 178.126C68.3699 176.491 67.1958 175.14 65.6524 174.37L65.652 174.37L63.955 170.938L57.825 170.467L56.5197 169.817L53.521 175.821Z" fill="#2F2E41"/>
<path d="M178.952 183.297H0V184H178.952V183.297Z" fill="#CCCCCC"/>
<path d="M79.5443 89.1525C79.5443 89.1525 77.3727 115.243 76.9064 120.833C76.5867 124.338 75.8027 127.784 74.5751 131.083C74.5751 131.083 73.6425 132.946 73.6425 134.81L63.0738 154.001C63.0738 154.001 59.8442 156.373 60.3104 158.237C60.7767 160.1 58.3633 161.218 58.3633 161.218L69.4931 163.362C69.4931 163.362 69.0269 161.964 70.4257 161.498C71.8245 161.032 72.9379 156.991 72.9379 156.991L88.5631 131.548L99.7535 108.254C99.7535 108.254 106.281 129.219 107.68 131.548C107.68 131.548 112.809 157.638 113.742 159.967C114.674 162.297 115.14 162.297 114.674 163.229C114.208 164.16 114.208 165.092 114.674 165.558C115.14 166.024 123.999 165.558 123.999 165.558L121.668 132.48L117.472 92.88L96.0233 86.3576L79.5443 89.1525Z" fill="#2F2E41"/>
<path d="M100.543 26.8692C105.951 26.8692 110.335 22.4889 110.335 17.0856C110.335 11.6823 105.951 7.30203 100.543 7.30203C95.1353 7.30203 90.7515 11.6823 90.7515 17.0856C90.7515 22.4889 95.1353 26.8692 100.543 26.8692Z" fill="#A0616A"/>
<path d="M118.404 41.1668L106.748 34.1104C106.748 34.1104 106.425 29.7286 103.104 29.5224C101.436 29.4189 98.9341 29.2607 95.1792 29.0188C94.3856 28.9676 93.8501 33.3056 92.9407 33.2468L80.6366 36.508L82.5017 68.1881C82.5017 68.1881 79.7041 80.767 80.6366 83.0965C81.5691 85.4259 78.3053 86.3576 79.2378 86.8235C80.1703 87.2894 79.2378 90.5506 79.2378 90.5506C79.2378 90.5506 97.4222 99.8683 117.472 92.88L115.607 86.8235C115.86 86.0318 115.908 85.1885 115.745 84.3733C115.582 83.5581 115.213 82.7979 114.674 82.1647C114.674 82.1647 116.539 79.3694 114.208 77.0399C114.208 77.0399 115.14 72.847 112.809 70.9834L112.343 64.461L113.742 61.1998L118.404 41.1668Z" fill="#E6E6E6"/>
<path d="M92.0467 22.6747L91.773 22.0395C91.7377 21.9573 88.2749 13.778 91.3443 8.73279C92.7651 6.39709 95.3487 5.0784 99.0229 4.81365C104.772 4.3983 108.707 5.76094 110.721 8.86087C111.059 9.38625 111.249 9.99284 111.271 10.6169C111.292 11.2409 111.146 11.8593 110.846 12.4071C110.546 12.9549 110.104 13.4118 109.566 13.7298C109.028 14.0478 108.414 14.2151 107.789 14.2142H107.712L106.656 12.8437L106.594 12.977C106.212 13.8038 105.334 14.2563 104.305 14.1572C104.13 14.1447 103.975 14.2956 103.85 14.6185C103.809 14.7598 103.729 14.8872 103.621 14.9874C103.513 15.0875 103.38 15.1567 103.236 15.1877C102.476 15.3356 101.392 14.3789 100.907 13.9021C100.888 14.0119 100.846 14.1163 100.784 14.2084C100.721 14.3005 100.64 14.3781 100.544 14.4359C100.033 14.7306 99.2379 14.3457 99.0096 14.2231C97.1909 14.6092 96.0135 14.5059 95.5092 13.9165C95.1673 16.3337 94.4334 20.6846 93.5534 20.9258C93.4614 20.9469 93.3651 20.9379 93.2786 20.9002C93.1921 20.8624 93.1201 20.7978 93.0732 20.716C92.8612 20.4412 92.6719 20.3042 92.5537 20.3427C92.2674 20.4337 92.0984 21.3756 92.0742 21.9835L92.0467 22.6747Z" fill="#2F2E41"/>
<path d="M113.275 41.6327L117.926 40.8777C121.277 44.0943 123.559 48.2604 124.465 52.814C125.864 60.2681 126.331 61.6658 126.331 61.6658L115.14 64.4611L109.079 52.8139L113.275 41.6327Z" fill="#E6E6E6"/>
<path d="M92.6361 51.3283L89.7617 87.737L163.115 93.5186L165.99 57.1099L92.6361 51.3283Z" fill="white"/>
<path d="M100.473 54.1491C98.6776 52.8682 96.3985 52.7756 95.5278 52.794C95.7934 53.6224 96.6189 55.7471 98.414 57.0286C100.213 58.3127 102.49 58.4025 103.359 58.3845C103.094 57.5564 102.268 55.4308 100.473 54.1491Z" fill="#27AE60"/>
<path d="M107.555 77.3167L95.7761 76.3883C95.4281 76.3609 95.0781 76.4022 94.746 76.51C94.414 76.6177 94.1065 76.7897 93.841 77.0162C93.5755 77.2427 93.3572 77.5192 93.1987 77.83C93.0401 78.1408 92.9444 78.4797 92.9169 78.8274C92.8895 79.1752 92.9308 79.5249 93.0387 79.8567C93.1465 80.1884 93.3186 80.4957 93.5453 80.761C93.772 81.0263 94.0487 81.2444 94.3598 81.4028C94.6708 81.5612 95.01 81.6569 95.358 81.6843L107.136 82.6127C107.839 82.668 108.535 82.4422 109.072 81.9848C109.608 81.5274 109.94 80.8758 109.996 80.1736C110.051 79.4713 109.825 78.7757 109.367 78.24C108.91 77.7042 108.257 77.3721 107.555 77.3167Z" fill="#27AE60"/>
<path d="M163.098 53.5709L97.0597 48.3654C96.2916 48.3049 95.5191 48.3963 94.7863 48.6341C94.0535 48.872 93.3748 49.2518 92.7889 49.7517C92.203 50.2517 91.7214 50.8621 91.3716 51.548C91.0218 52.234 90.8107 52.982 90.7502 53.7495L88.2105 85.8961C88.0884 87.4465 88.5876 88.9819 89.5982 90.1647C90.6088 91.3475 92.0482 92.0808 93.5998 92.2034L159.638 97.409C160.406 97.4694 161.179 97.3781 161.911 97.1403C162.644 96.9024 163.323 96.5226 163.909 96.0227C164.495 95.5227 164.976 94.9123 165.326 94.2264C165.676 93.5404 165.887 92.7924 165.947 92.0249L168.361 61.4708L168.41 60.8466L168.486 59.8752C168.547 59.1078 168.455 58.3359 168.217 57.6037C167.979 56.8715 167.599 56.1934 167.099 55.608C166.599 55.0226 165.988 54.5414 165.301 54.1918C164.615 53.8423 163.866 53.6313 163.098 53.5709ZM161.148 81.5403L160.729 86.8363C160.653 87.7717 160.209 88.6388 159.494 89.248C158.78 89.8572 157.853 90.159 156.916 90.0873L148.082 89.3918C147.145 89.3153 146.278 88.8717 145.668 88.1578C145.058 87.4439 144.756 86.5178 144.828 85.582L145.246 80.2859C145.323 79.3507 145.767 78.4838 146.482 77.8746C147.196 77.2655 148.123 76.9636 149.059 77.0349L157.891 77.7313C158.827 77.808 159.695 78.2516 160.305 78.9651C160.915 79.6787 161.218 80.6044 161.148 81.5403ZM92.3325 78.7787C92.401 77.9217 92.807 77.1268 93.4613 76.5685C94.1156 76.0102 94.9649 75.7341 95.8227 75.8006L107.601 76.7296C108.026 76.7624 108.441 76.8787 108.821 77.0718C109.202 77.2649 109.541 77.531 109.818 77.8549C110.096 78.1788 110.307 78.5542 110.439 78.9596C110.571 79.365 110.622 79.7925 110.589 80.2176C110.556 80.6427 110.439 81.057 110.245 81.437C110.052 81.8171 109.785 82.1552 109.461 82.4322C109.136 82.7092 108.76 82.9196 108.355 83.0514C107.949 83.1832 107.521 83.2338 107.096 83.2003L107.089 83.2019L95.3114 82.2729C94.8861 82.2393 94.4715 82.1222 94.0915 81.9284C93.7114 81.7345 93.3734 81.4677 93.0967 81.1431C92.82 80.8185 92.61 80.4426 92.4789 80.0369C92.3478 79.6312 92.298 79.2036 92.3325 78.7787ZM94.8539 52.5841L94.7734 52.2549L95.1122 52.2239C95.2447 52.2096 98.3778 51.9286 100.817 53.6693C103.255 55.41 104.003 58.4641 104.036 58.5918L104.113 58.9218L103.775 58.9558C103.295 58.9915 102.814 58.9883 102.334 58.9463C100.809 58.8571 99.3367 58.3602 98.0701 57.5074C95.6313 55.7667 94.8834 52.7126 94.8539 52.5841Z" fill="#27AE60"/>
<path d="M151.24 85.0526L147.412 84.7509C147.139 84.7299 146.868 84.818 146.66 84.9958C146.452 85.1737 146.323 85.4268 146.302 85.6996C146.28 85.9724 146.368 86.2426 146.545 86.4508C146.723 86.6591 146.976 86.7884 147.249 86.8104L151.077 87.1122C151.35 87.1332 151.62 87.0451 151.828 86.8673C152.037 86.6894 152.166 86.4363 152.187 86.1635C152.209 85.8907 152.121 85.6205 151.943 85.4122C151.766 85.2039 151.513 85.0746 151.24 85.0526Z" fill="#27AE60"/>
<path d="M158.307 85.6096L154.479 85.3079C154.206 85.2871 153.936 85.3752 153.728 85.5531C153.52 85.731 153.391 85.984 153.369 86.2566C153.348 86.5293 153.435 86.7994 153.613 87.0076C153.79 87.2159 154.043 87.3453 154.316 87.3674L158.144 87.6692C158.417 87.69 158.687 87.6018 158.895 87.4239C159.103 87.2461 159.232 86.9931 159.254 86.7204C159.275 86.4478 159.187 86.1777 159.01 85.9695C158.833 85.7612 158.58 85.6318 158.307 85.6096Z" fill="#27AE60"/>
<path d="M151.449 82.4046L147.621 82.1029C147.348 82.0821 147.078 82.1703 146.87 82.3481C146.662 82.526 146.533 82.779 146.512 83.0517C146.49 83.3243 146.578 83.5944 146.755 83.8026C146.933 84.0109 147.185 84.1403 147.458 84.1625L151.286 84.4642C151.559 84.4852 151.83 84.3971 152.038 84.2193C152.246 84.0414 152.375 83.7883 152.396 83.5155C152.418 83.2427 152.33 82.9725 152.153 82.7642C151.975 82.556 151.722 82.4266 151.449 82.4046Z" fill="#27AE60"/>
<path d="M158.516 82.9617L154.688 82.6599C154.415 82.6389 154.145 82.727 153.937 82.9049C153.728 83.0827 153.599 83.3358 153.578 83.6086C153.556 83.8814 153.644 84.1516 153.822 84.3599C153.999 84.5681 154.252 84.6975 154.525 84.7195L158.353 85.0212C158.626 85.0423 158.897 84.9542 159.105 84.7763C159.313 84.5984 159.442 84.3453 159.464 84.0725C159.485 83.7997 159.397 83.5295 159.22 83.3213C159.042 83.113 158.789 82.9837 158.516 82.9617Z" fill="#27AE60"/>
<path d="M151.658 79.7567L147.83 79.4549C147.557 79.4339 147.286 79.522 147.078 79.6998C146.87 79.8777 146.741 80.1308 146.72 80.4036C146.698 80.6764 146.786 80.9466 146.963 81.1549C147.141 81.3632 147.394 81.4925 147.667 81.5145L151.495 81.8162C151.768 81.837 152.038 81.7489 152.246 81.571C152.454 81.3931 152.583 81.1401 152.604 80.8675C152.626 80.5948 152.538 80.3247 152.361 80.1165C152.183 79.9082 151.93 79.7788 151.658 79.7567Z" fill="#27AE60"/>
<path d="M158.725 80.3137L154.897 80.0119C154.624 79.9911 154.354 80.0793 154.146 80.2571C153.938 80.435 153.809 80.688 153.787 80.9607C153.766 81.2334 153.853 81.5034 154.031 81.7117C154.208 81.9199 154.461 82.0493 154.734 82.0715L158.562 82.3732C158.835 82.394 159.105 82.3059 159.313 82.128C159.521 81.9502 159.65 81.6971 159.672 81.4245C159.693 81.1518 159.606 80.8817 159.428 80.6735C159.251 80.4652 158.998 80.3358 158.725 80.3137Z" fill="#27AE60"/>
<path d="M89.7684 63.8927L89.7192 64.5185L167.239 70.6031L167.289 69.9772L89.7684 63.8927Z" fill="white"/>
<path d="M168.409 60.8465L168.361 61.4709L165.663 61.2594L136.918 59.0034L136.97 58.3783L165.712 60.635L168.409 60.8465Z" fill="#3F3D56"/>
<path d="M73.6426 54.2116C73.6426 54.2116 69.4462 71.9152 74.5751 71.9152C79.704 71.9152 91.827 51.8822 91.827 51.8822L87.6306 46.7574L80.0985 57.2061L79.704 51.8822L73.6426 54.2116Z" fill="#A0616A"/>
<path d="M90.7084 52.6518C92.9631 52.6518 94.7909 50.8255 94.7909 48.5727C94.7909 46.3199 92.9631 44.4936 90.7084 44.4936C88.4537 44.4936 86.626 46.3199 86.626 48.5727C86.626 50.8255 88.4537 52.6518 90.7084 52.6518Z" fill="#A0616A"/>
<path d="M84.0332 39.3033L81.2355 36.508C81.2355 36.508 75.6403 39.7692 75.1741 43.0304C74.7078 46.2916 72.3765 56.541 72.3765 56.541L81.0024 57.2399L83.8 53.0469L84.0332 39.3033Z" fill="#E6E6E6"/>
</g>
<defs>
<clipPath id="clip0_29_354">
<rect width="284" height="184" fill="white"/>
</clipPath>
</defs>
</svg>
